# xmcd
#
# Track frame offsets:
# 150
# 11238
# 26045
# 37395
# 53007
# 67074
# 77069
# 93564
# 110491
# 123926
# 135070
# 148928
# 163327
# 179541
#
# Disc length: 2559 seconds
#
#
# Revision: 1
# Processed by: cddbd v1.5.2PL0 Copyright (c) Steve Scherf et al.
# Submitted via: FreeRIP 2.951 
#
DISCID=cc09fd0e
DTITLE=Jads and Jadson - Dom Brasileiro
DYEAR=2004
DGENRE=Country
TTITLE0=Traz De Volta Minha Vida
TTITLE1=Flor Da Primaveira
TTITLE2=Duzentos Por Hora
TTITLE3=Lembrancas De Um Amor
TTITLE4=Como Eu Queria
TTITLE5=Dor De Violeiro
TTITLE6=Com Todos Menos Comigo
TTITLE7=Dom Brasileiro
TTITLE8=Cada Um Com Seus Problemas
TTITLE9=Machao Apaixonado
TTITLE10=Contragiro No Vermelho
TTITLE11=Nosso Amor Foi Assim
TTITLE12=Rei Dos Canoneiros
TTITLE13=Vara De Marmelo
EXTD=
EXTT0=
EXTT1=
EXTT2=
EXTT3=
EXTT4=
EXTT5=
EXTT6=
EXTT7=
EXTT8=
EXTT9=
EXTT10=
EXTT11=
EXTT12=
EXTT13=
PLAYORDER=
